<svg xmlns="http://www.w3.org/2000/svg" viewBox="0 0 343.75 162.91"><defs><style>.cls-1{fill:#fff;}</style></defs><g id="Calque_2" data-name="Calque 2"><g id="Calque_1-2" data-name="Calque 1"><path class="cls-1" d="M193.14,63.46H150.61a3.67,3.67,0,0,0-3.23,5.42l21.27,39.24a3.67,3.67,0,0,0,6.45,0l21.26-39.24A3.67,3.67,0,0,0,193.14,63.46Z"/><path class="cls-1" d="M343.73,47.91c0-16.7-6.74-30.33-18.07-38.7h0C317.77,3.35,307.64.06,296,.05Q171.75,0,47.5.06C36,.07,25.92,3.37,18.05,9.21,6.77,17.57,0,31.13,0,47.61v8.08q0,29.79,0,59.56a55,55,0,0,0,1.41,12.87,44.33,44.33,0,0,0,16.6,25.49c8,5.92,18.06,9.23,29.41,9.26q62.25.1,124.5,0,62,0,124,0c11.64,0,21.79-3.33,29.7-9.19,11.32-8.38,18.06-22,18.07-38.64q0-15.67,0-31.33c0-.74,0-1.49,0-2.23Q343.74,64.7,343.73,47.91ZM325.64,115c0,18.48-11.1,29.73-29.52,29.75q-124.27.08-248.54,0c-18.38,0-29.5-11.31-29.51-29.76q0-13.94,0-27.88v-9q0-15.17,0-30.32c0-18.68,11.15-29.72,30-29.74q62-.07,124,0t124,0c14.16,0,24.39,6.87,28,18.93a38.23,38.23,0,0,1,1.46,10.82q0,26.62,0,53.26Z"/></g></g></svg>