<svg xmlns="http://www.w3.org/2000/svg" viewBox="0 0 343.79 325.83"><defs><style>.cls-1{fill:#fff;}</style></defs><g id="Calque_2" data-name="Calque 2"><g id="Calque_1-2" data-name="Calque 1"><path class="cls-1" d="M172,325.81q-62.25,0-124.51,0c-22.93-.05-40.84-13.56-46-34.76A55,55,0,0,1,.07,278.17Q0,162.89,0,47.61C.05,19.63,19.52.08,47.54.05Q171.79-.06,296,.05c28.32,0,47.71,19.51,47.72,47.86q.06,115,0,230.05c0,28.3-19.45,47.78-47.76,47.83Q234,325.91,172,325.81Zm.15-307.71q-62,0-124,0c-18.88,0-30,11.06-30,29.74q0,115.05,0,230.09c0,18.45,11.12,29.74,29.51,29.76q124.26.07,248.53,0c18.42,0,29.52-11.27,29.53-29.75q0-115-.05-230.08a38.34,38.34,0,0,0-1.45-10.83c-3.63-12-13.85-18.91-28-18.93Q234.16,18,172.15,18.1Z"/><path class="cls-1" d="M184.52,235.2,201,251.57c1.42,1.41,2.89,2.78,4.23,4.26,3.73,4.1,3.84,9.45.35,13s-8.88,3.69-13-.16c-4.37-4.1-8.52-8.45-12.77-12.69q-11-11-21.92-21.92c-5.61-5.62-5.68-9.95-.22-15.43q16.77-16.83,33.59-33.59c4.92-4.9,10-5.43,14-1.59S209,192.9,204,197.88c-6.06,6.06-12.27,12-19.44,19h86.37V181c-5.41,0-10.86,0-16.3,0-6.35-.06-10.44-3.56-10.51-8.89s4.07-9.07,10.3-9.12q12.25-.1,24.5,0c6.88.06,10.44,3.2,10.5,9.9q.24,26.26,0,52.52c-.07,7-3.47,9.82-11,9.83q-43.5.06-87,0Z"/></g></g></svg>