<svg xmlns="http://www.w3.org/2000/svg" viewBox="0 0 343.75 162.91"><defs><style>.cls-1{fill:#fff;}</style></defs><g id="Calque_2" data-name="Calque 2"><g id="Calque_1-2" data-name="Calque 1"><path class="cls-1" d="M150.61,99.45h42.53A3.67,3.67,0,0,0,196.36,94L175.1,54.79a3.67,3.67,0,0,0-6.45,0L147.38,94A3.67,3.67,0,0,0,150.61,99.45Z"/><path class="cls-1" d="M0,115c0,16.7,6.74,30.33,18.07,38.7h0c7.89,5.85,18,9.14,29.65,9.15q124.26.09,248.51,0c11.51,0,21.58-3.31,29.45-9.15,11.28-8.36,18-21.92,18.05-38.4v-8.08q0-29.79,0-59.56a55,55,0,0,0-1.41-12.87A44.33,44.33,0,0,0,325.7,9.3C317.75,3.38,307.64.07,296.29,0Q234-.06,171.79,0q-62,0-124,0C36.15.06,26,3.37,18.09,9.23,6.77,17.61,0,31.21,0,47.87Q0,63.55,0,79.2c0,.74,0,1.49,0,2.23Q0,98.22,0,115ZM18.11,47.87c0-18.48,11.1-29.73,29.52-29.75q124.28-.07,248.54,0c18.38,0,29.5,11.31,29.51,29.76q0,13.93,0,27.88v9q0,15.17,0,30.32c0,18.68-11.15,29.72-30,29.74q-62,.08-124,0t-124,0c-14.16,0-24.39-6.87-28-18.93A38.23,38.23,0,0,1,18.15,115q0-26.62,0-53.26Z"/></g></g></svg>