<svg id="Calque_1" data-name="Calque 1" xmlns="http://www.w3.org/2000/svg" viewBox="0 0 576.07 480.78"><defs><style>.cls-1{fill:#fff;}</style></defs><path class="cls-1" d="M320.07,72V408c0,21.47,26,32,41,17L450,336H552.07a24,24,0,0,0,24-24V168a24,24,0,0,0-24-23.95h-102l-89-89C346.07,40,320.07,50.56,320.07,72ZM127.72,3.93A281.87,281.87,0,0,0,46,85.66C-39.23,216-2.64,390.78,127.72,476a23.38,23.38,0,0,0,2.15,1.41,24.2,24.2,0,1,0,24.41-41.79,233.65,233.65,0,0,1-67.75-67.75c-70.6-108-40.26-252.81,67.75-323.41l.29-.19A24.2,24.2,0,0,0,127.72,4Zm54.12,392.31.11.07a23.94,23.94,0,0,0,33-7.53,24.28,24.28,0,0,0-7.41-33.36,136.67,136.67,0,0,1,0-230.84A24.28,24.28,0,0,0,215,91.22a1.74,1.74,0,0,0-.11-.18,23.91,23.91,0,0,0-33-7.28,185.19,185.19,0,0,0,0,312.48Zm56-233.11a87.44,87.44,0,0,0,0,153.74A24,24,0,0,0,261,274.81a39.42,39.42,0,0,1,0-69.62h0a24,24,0,0,0-23.16-42.06Z" transform="translate(0 0.07)"/></svg>