<svg id="Calque_1" data-name="Calque 1" xmlns="http://www.w3.org/2000/svg" viewBox="0 0 576 480.02"><defs><style>.cls-1{fill:#fff;}</style></defs><path class="cls-1" d="M215,71.05l-89,89H24A24,24,0,0,0,0,184V328a24,24,0,0,0,24,24H126.06L215,441c15,15,41,4.47,41-17V88C256,66.56,230,56,215,71.05ZM448.35,20a24.2,24.2,0,1,0-26.56,40.46,233.65,233.65,0,0,1,0,391.16A24.2,24.2,0,1,0,448.35,492a282,282,0,0,0,0-472.07ZM480,256A184.64,184.64,0,0,0,394.23,99.76a23.9,23.9,0,0,0-33.12,7.46,24.29,24.29,0,0,0,7.41,33.36,136.67,136.67,0,0,1,0,230.84,24.28,24.28,0,0,0-7.41,33.36,23.94,23.94,0,0,0,33.12,7.46A184.62,184.62,0,0,0,480,256ZM338.23,179.13a24,24,0,1,0-23.16,42.06,39.42,39.42,0,0,1,0,69.62,24,24,0,1,0,23.16,42.06,87.43,87.43,0,0,0,0-153.74Z" transform="translate(0 -16)"/></svg>